<svg width="40" height="40" viewBox="0 0 40 40" fill="none" xmlns="http://www.w3.org/2000/svg">
<path d="M18.8149 3.25923C16.3334 9.25923 12.963 13.5185 7.96301 16.8889C2.07412 20.8148 -0.222172 24.4815 0.111161 29.3703C0.333383 32.8889 2.07412 36.3703 4.33338 37.7778C8.77783 40.5926 15.1112 39.9629 18.6667 36.3333V36.3333C19.5213 35.455 19.9971 34.2764 19.9918 33.051L19.926 17.8889L19.8321 3.45581C19.8283 2.8784 19.0335 2.7248 18.8149 3.25923V3.25923Z" fill="black"/>
<path d="M22.4816 10.2962C21.926 10.9259 21.8519 12.4074 21.8519 24.1481C21.8519 36.4074 21.889 37.3333 22.5186 37.8888C23.4075 38.7037 24.5556 38.6666 25.2964 37.8518C25.8519 37.2222 25.926 35.7407 25.926 24C25.926 11.7407 25.889 10.8148 25.2593 10.2592C24.3704 9.4444 23.2223 9.48143 22.4816 10.2962Z" fill="black"/>
<path d="M28.4075 15.8518C27.8519 16.4444 27.7778 17.8148 27.7778 27.6666C27.7778 37.9629 27.8149 38.8148 28.4445 39.3703C29.3334 40.1852 30.4815 40.1481 31.2223 39.3333C31.7778 38.7407 31.8519 37.3703 31.8519 27.5185C31.8519 17.2222 31.8149 16.3703 31.1852 15.8148C30.2964 15 29.1482 15.037 28.4075 15.8518Z" fill="black"/>
<path d="M34.3334 20.2963C33.7778 20.8889 33.7037 22.037 33.7037 28.7777C33.7037 35.8518 33.7778 36.5926 34.3704 37.1481C35.2593 37.9629 36.4074 37.9259 37.1482 37.1111C37.7037 36.5185 37.7778 35.3703 37.7778 28.6296C37.7778 21.5555 37.7037 20.8148 37.1111 20.2592C36.2223 19.4444 35.0741 19.4815 34.3334 20.2963Z" fill="black"/>
</svg>
